<?xml version="1.0" standalone="no"?>
<!DOCTYPE svg PUBLIC "-//W3C//DTD SVG 20010904//EN"
 "http://www.w3.org/TR/2001/REC-SVG-20010904/DTD/svg10.dtd">
<svg version="1.0" xmlns="http://www.w3.org/2000/svg"
 width="70.000000pt" height="70.000000pt" viewBox="0 0 70.000000 70.000000"
 preserveAspectRatio="xMidYMid meet">
<metadata>
Created by potrace 1.14, written by Peter Selinger 2001-2017
</metadata>
<g transform="translate(0.000000,70.000000) scale(0.100000,-0.100000)"
fill="#000000" stroke="none">
<path d="M275 611 c-22 -10 -51 -30 -64 -45 -14 -14 -42 -31 -63 -37 -45 -12
-118 -73 -118 -99 0 -10 -6 -20 -14 -23 -18 -7 -17 -87 1 -105 7 -8 11 -17 9
-21 -8 -13 52 -78 88 -95 19 -9 46 -16 60 -16 21 0 26 5 26 27 0 24 1 25 18
11 17 -15 46 -29 71 -34 24 -5 35 -24 36 -62 0 -33 3 -37 27 -38 15 -1 25 2
23 6 -3 5 7 11 21 14 14 4 40 22 57 40 18 18 50 38 73 44 78 22 128 90 127
173 -1 90 -44 149 -126 174 -39 12 -47 12 -58 -1 -9 -11 -8 -14 2 -14 10 -1 8
-4 -4 -11 -13 -8 -21 -6 -33 6 -9 9 -29 19 -45 22 -35 7 -49 22 -45 48 4 22
-10 55 -22 54 -4 0 -25 -9 -47 -18z m281 -219 c24 -51 8 -97 -45 -127 -10 -6
-12 -1 -5 26 12 54 12 72 -1 115 l-12 41 23 -11 c13 -6 31 -26 40 -44z m-391
31 c-14 -33 -13 -108 1 -130 11 -18 11 -22 -1 -27 -9 -3 -26 9 -43 30 -34 41
-33 80 4 119 27 29 50 34 39 8z"/>
</g>
</svg>
